# xmcd
#
# Track frame offsets: 
#        150
#        11550
#        28695
#        39215
#        57687
#        74264
#        89386
#        97269
#        111122
#        116382
#        129662
#        151296
#        166845
#        180058
#        192777
#        213212
#        230470
#
# Disc length: 3326 seconds
#
# Revision: 2
# Processed by: cddbd v1.5.2PL0 Copyright (c) Steve Scherf et al.
# Submitted via: ExactAudioCopy v0.99pb3
#
DISCID=d80cfc11
DTITLE=Musica Nuda (Petra Magoni and Ferruccio Spinetti) - 55 - 21
DYEAR=2008
DGENRE=Jazz
TTITLE0=Pazzo il mondo?
TTITLE1=Si viagglare (Feat Gianluca Petrella)
TTITLE2=Bocca di rosa
TTITLE3=La canzone dei vecchi amanti (Feat Stefano Bollani)
TTITLE4=Fronne (Feat Nicola Stilo)
TTITLE5=Io so che ti amero (Eu sei que vou te amar)
TTITLE6=Anena e core
TTITLE7=Marinalo
TTITLE8=Two for one
TTITLE9=It had better be tonight (Feat Sanseverino)
TTITLE10=The very thought of you (Feat Stefano Bollani)
TTITLE11=La pittrice di girasoli
TTITLE12=Una carezza in un pugno
TTITLE13=While my guitar gently weeps
TTITLE14=Crocodall (Feat Jacques Higelin)
TTITLE15=Km e dolori
TTITLE16=Basta un colpo di vento
EXTD=
EXTT0=
EXTT1=
EXTT2=
EXTT3=
EXTT4=
EXTT5=
EXTT6=
EXTT7=
EXTT8=
EXTT9=
EXTT10=
EXTT11=
EXTT12=
EXTT13=
EXTT14=
EXTT15=
EXTT16=
PLAYORDER=
